PathFileType	4	(X/Y/Z)	27_2_102_p1_0-232_filt_butterworth.trc
DataRate	CameraRate	NumFrames	NumMarkers	Units	OrigDataRate	OrigDataStartFrame	OrigNumFrames
53.0	53.0	6	27	m	53.0	0	232
Frame#	Time	RHip			RKnee			RAnkle			RBigToe			RSmallToe			RHeel			LHip			LKnee			LAnkle			LBigToe			LSmallToe			LHeel			Neck			Head			Nose			RShoulder			RElbow			RWrist			RThumb			RIndex			RPinky			LShoulder			LElbow			LWrist			LThumb			LIndex			LPinky			
		X1	Y1	Z1	X2	Y2	Z2	X3	Y3	Z3	X4	Y4	Z4	X5	Y5	Z5	X6	Y6	Z6	X7	Y7	Z7	X8	Y8	Z8	X9	Y9	Z9	X10	Y10	Z10	X11	Y11	Z11	X12	Y12	Z12	X13	Y13	Z13	X14	Y14	Z14	X15	Y15	Z15	X16	Y16	Z16	X17	Y17	Z17	X18	Y18	Z18	X19	Y19	Z19	X20	Y20	Z20	X21	Y21	Z21	X22	Y22	Z22	X23	Y23	Z23	X24	Y24	Z24	X25	Y25	Z25	X26	Y26	Z26	X27	Y27	Z27	
0	0.0	0.13379706320085683	0.663776521242561	1.029685339006445	0.14044833628666475	0.702049247613584	1.4372659194594668	0.14878172371350507	0.8052114882252388	1.8337590600260123	0.13572887172413947	0.6223842608656815	1.8553839153257106	0.18484364595099953	0.6293713490250782	1.8425007227111894	0.14702702657224864	0.8822213000052627	1.8885130377864559	-0.0674838311525714	0.6702357460906181	1.034595475813339	-0.05425011371995666	0.7441119586090047	1.4429564870090235	-0.03010145265601248	0.813233152361017	1.8447989991243032	-0.030683496434838635	0.5963188202912086	1.8278098803242153	-0.0808699057259997	0.6515214748864417	1.8444855512667697	-0.008787838781225603	0.8806786540429559	1.8858691456537893	0.030934963522342672	0.5934314045152739	0.5036446076702713	0.028497737215970518	0.536959560719876	0.25349328747289956	0.02127693649368448	0.4616024012699234	0.3883770450156979	0.16215413967657444	0.5940383794803339	0.5807042348220787	0.19977030921891642	0.5920324393362338	0.815135890840953	0.12256693627867268	0.48757513107220846	0.9906698075520701	0.009394654633607814	0.474951255017899	1.0242670150269007	0.0020143755794615067	0.4791859388201906	1.0560685300563002	0.008899046529460984	0.4794863844696936	1.0754105508509557	-0.10590668754736485	0.6418329120181495	0.5909553192324252	-0.1429130527530404	0.5907983294915562	0.804985435886725	-0.07430819413996517	0.4783957978085973	0.9757089282270259	0.006806623309057366	0.46216359232637305	0.9966044868745574	0.014660084887160595	0.47752035039266016	1.0632871595975473	0.013405741121748941	0.4945731677990681	1.087354829966554
1	0.0188679245283018	0.13627198947230523	0.6648360246320546	1.0298721457561715	0.14007979006847202	0.7025001211135002	1.4405981482501917	0.15471829752046776	0.8168667289558564	1.84245662162916	0.13237546571971892	0.607582518899008	1.845193099340441	0.18575300020215846	0.6180091757112938	1.8365716123150244	0.15043227643337578	0.8919552212604747	1.8938038851867904	-0.06804238073670724	0.6706623915909573	1.0320214576056712	-0.05471863812476164	0.7423844555048871	1.441830519204267	-0.030055852876870546	0.813051274891337	1.8448253110895128	-0.03194466674680983	0.5923525065085704	1.8257619753132623	-0.0823906928696383	0.6568587746909667	1.8473604923747136	-0.006711845025269719	0.8755244229012439	1.8831446941882175	0.030996428478990142	0.5935351510344822	0.5046662658282691	0.02849293924062635	0.537031931032128	0.253500172799238	0.02000521262969414	0.45859808588216977	0.3882955932709143	0.1609601528582464	0.5945549116909623	0.581984194014864	0.2003038978831818	0.5921037148884849	0.8200867570221695	0.11902797352350258	0.48585348179749854	0.9924700764810024	0.011054216402864497	0.47694133859335586	1.0272625752433084	0.0032670145529627736	0.48109335607425396	1.063253144601015	0.011836780291965344	0.48793483159840134	1.0776315131677716	-0.10587450165463977	0.6417697263151143	0.5909029290929396	-0.14441260282129798	0.5903908435357972	0.8048987560845227	-0.07410203072464154	0.47807774869975167	0.9732369466991093	0.006730624018403569	0.46178774304860826	0.9938705320207938	0.013783348219716376	0.4737822050309257	1.0621226833313886	0.01341398848717831	0.49369965033275687	1.0845479895081025
2	0.0377358490566037	0.13757862176339727	0.665372276178873	1.0304691174766678	0.13988101197741476	0.7027404799260965	1.4423847362802467	0.15707108739079223	0.823043343427998	1.847097488897363	0.13025872816292375	0.602530883167713	1.8411559315658717	0.18566227276413555	0.6104324132362208	1.8325716563963437	0.15237885599771028	0.897627168644846	1.8977844277220057	-0.06785048461421174	0.6693878901457527	1.0306493182230454	-0.0547243086747765	0.7418798083037101	1.4425134487627629	-0.03003568768027771	0.8129379245281971	1.8448175291249618	-0.03245372105972837	0.5907924237537282	1.8249549212876903	-0.08334259422795696	0.6604747407769518	1.8493157321717728	-0.004470790474080711	0.8707697383860011	1.8814991761798394	0.031012396927504328	0.5936052916653118	0.5057098922480002	0.028493495329051547	0.5371292709270858	0.25350526111488003	0.020034954098497197	0.4589076951857087	0.3882506096007322	0.15954320168839875	0.5946537793321691	0.5820520648447842	0.20052536735746834	0.592047870306469	0.8227844123611402	0.11729694408261598	0.4848537064884966	0.9934250222616356	0.011994268755327562	0.4779977647732651	1.0284069558846833	0.003975710022201052	0.48209492153314304	1.0677077477035843	0.013492428843643428	0.4927694084951418	1.078924198197647	-0.10584544645862039	0.6417482522703143	0.5908775697740225	-0.14537074548442636	0.5900649365823801	0.804854061348954	-0.07397655329825539	0.47791627171199713	0.9718728497663496	0.006674021699860706	0.46164131211546183	0.9924078680163279	0.012384465165107057	0.4696704098532076	1.0605434508880451	0.013406133815686033	0.4931954387054953	1.0829828837239466
3	0.0566037735849056	0.1377967732250764	0.6653372472118774	1.0307287552216666	0.13984920596302394	0.702785045961024	1.4426724721451945	0.1565484793941774	0.8239815318143859	1.8478344019210258	0.12958064264256752	0.6048683375866448	1.8420484955442111	0.18528648458887778	0.6082987223388991	1.8314103860221689	0.15308212395332654	0.8992980655947668	1.9002049503443748	-0.06660172915331619	0.6654061529641991	1.0305504675708972	-0.0543596019532587	0.7424282605691792	1.4447106650072898	-0.030051122997511386	0.8129290210144403	1.8447312762605235	-0.03197971903789956	0.5924381572594114	1.8258160081917876	-0.08407357619178736	0.6635697474660841	1.851002565743136	-0.0030454683476796866	0.8697583923393988	1.8824172799376586	0.030997480961318262	0.5936324071935323	0.506414274946156	0.02849612441208785	0.5372175931806603	0.25351301992028175	0.02081436462104336	0.46106246500430365	0.38825224423084564	0.15841813524453527	0.5944700140218624	0.5813809592327022	0.2004873025765308	0.5919224568646624	0.823271192314793	0.11757853919561162	0.48481317831551396	0.993577256256748	0.012155596041434905	0.47801000996254694	1.0276136892749883	0.0041881239533865895	0.4821818623012856	1.0694625639069208	0.013833828809452445	0.49385192872598876	1.0793465616019715	-0.10586132127980119	0.6417694941528436	0.5908585730855137	-0.1460624871321341	0.5897082282048469	0.8048617173263007	-0.0739416462554796	0.4779004780872347	0.9716058584928567	0.00666318926451303	0.4615727574216838	0.9921568809432009	0.011053187296960833	0.46635425540448994	1.0585500998882589	0.013379921654082683	0.49305597605614154	1.0826044660962801
4	0.0754716981132075	0.13764283453176762	0.6650544115744605	1.030382481683735	0.13987670730463997	0.7027563930014045	1.4424057199861027	0.1556473445283747	0.8231034103088539	1.8472060208405712	0.12965394770846947	0.6074575044633848	1.8435235988956962	0.18571081797157576	0.6103787573519056	1.832489415812576	0.15340799994261717	0.8991989594412144	1.9012712160512921	-0.0649684537117719	0.6600478092133575	1.0309275458993095	-0.05403251783819107	0.742992918414863	1.446540202603778	-0.030068317264086077	0.8130189993356342	1.8446892595804842	-0.031204649372902283	0.5950873678941465	1.8272000978967704	-0.08481158633457526	0.6665155673399198	1.852624899029172	-0.003732499022817101	0.8741985216881887	1.8858206021575654	0.030987795246616608	0.5936359013797681	0.5065990190271337	0.028484774220636076	0.5372523204172679	0.2535347715833769	0.021305582126552945	0.4623838356545851	0.3882871161254136	0.15793523721222275	0.5943140317752241	0.5809208468576689	0.20043325030425058	0.59187585788229	0.8229302789012347	0.11853213205421764	0.4853307224773934	0.9934517297947651	0.01189234980944712	0.47742672374684103	1.0258306810737112	0.0042967878668880456	0.48184441729607275	1.070441648957254	0.01335251944613232	0.49245258644183515	1.0793301557166965	-0.10598419485877315	0.6417860140204851	0.5907985525690473	-0.14662457341976495	0.5893479083078184	0.8048968015946695	-0.07396055170704523	0.47793453561225097	0.9717657743762826	0.006700431845561156	0.46133998342311494	0.9923039388626316	0.010741581058460212	0.46494883865189673	1.0568397570715362	0.013324066845305018	0.493067077009332	1.0827120430615589
5	0.0943396226415094	0.13755236601292	0.6648165241725047	1.0299568843020754	0.13988593856350273	0.7026972040146265	1.4421531007375183	0.155315402294567	0.8224646897992149	1.846767466631333	0.12979621220199317	0.6079036670834758	1.8439133952980475	0.18660782620415267	0.6132979665017307	1.8340343484584825	0.15347838343759856	0.8986000201941315	1.9013409253836842	-0.06398496869188626	0.6562762912481815	1.031172872674723	-0.053871555134217874	0.7430019915089824	1.4466122812636708	-0.02996640070643446	0.8132857559806234	1.845243702747012	-0.030830868853060727	0.5964172749342347	1.8278856096132832	-0.08524300533101187	0.667972850625584	1.8534466737029047	-0.0064885892970586185	0.8806423306879427	1.8894942167312383	0.03099619333461108	0.5936355481583776	0.5065140074950055	0.028457571061418517	0.5372447187788187	0.2535705655494551	0.021379490446785842	0.4625531323044054	0.38832494806794415	0.15785779474969436	0.5942610521026375	0.5808358666484704	0.20045265176852706	0.5918891942188	0.822663149920329	0.1190564808039783	0.48576660653966053	0.9933649372229713	0.01153043681546364	0.47674296038440667	1.024163885121745	0.0044567488960742105	0.48142122658708303	1.0715061484738662	0.012211932262321246	0.4889098095786635	1.078627970565768	-0.10619449777011078	0.6416812116582528	0.5907013429274116	-0.14688667573782416	0.5891814213936064	0.8049248021471286	-0.07399712483434648	0.4779698940338081	0.9719142504261071	0.00674391529180267	0.4610425924348459	0.9923489322496969	0.0117448635338814	0.4658560277591984	1.056437355388225	0.013224114801966246	0.4931195569774361	1.0831567086074785
